<svg id="Camada_1" data-name="Camada 1" xmlns="http://www.w3.org/2000/svg" viewBox="0 0 33 23"><defs><style>.cls-1{fill:#00acec;}.cls-2{fill:#fff;}</style></defs><rect class="cls-1" width="33" height="23" rx="1.6"/><rect class="cls-2" x="18.15" y="7.12" width="0.79" height="3.22"/><path class="cls-2" d="M21,7.82h.49v-.7h-1c-.36,0-1.14.28-1.17,1.6,0,.89.37,1.62,1.25,1.62h1l.31-.71h1.58l.31.71h1.56V8l1.42,2.35h1.08V7.12h-.79V9.35L25.73,7.12H24.57v3l-1.35-3h-1L21.09,9.62h-.51c-.19,0-.49-.18-.49-.74V8.63C20.09,7.88,20.5,7.82,21,7.82Zm1.67,0,.49,1.12h-1Z"/><path class="cls-2" d="M17.75,8a.85.85,0,0,0-.95-.86H14.75v3.21h.79V9.21h1c.27,0,.38.27.39.54l0,.59h.77l0-.66c0-.52-.14-.76-.52-.8A.89.89,0,0,0,17.75,8Zm-1.23.56h-1V7.82h1c.33,0,.44.21.44.37S16.84,8.55,16.52,8.55Z"/><polygon class="cls-2" points="14.29 7.82 14.29 7.13 11.71 7.13 11.71 10.34 14.29 10.34 14.29 9.67 12.5 9.67 12.5 9.03 14.24 9.03 14.24 8.42 12.5 8.42 12.5 7.82 14.29 7.82"/><path class="cls-2" d="M11.18,10.34V7.13H9.92L9,9.28,8,7.13H6.75v3.09L5.37,7.13h-1l-1.4,3.21h.83l.31-.72H5.63l.32.72H7.54V8l1,2.39h.72L10.39,8v2.35ZM4.37,8.93l.47-1.12.49,1.12Z"/><path class="cls-2" d="M25.62,15.19H24.33v.69H26A.94.94,0,0,0,27,15c0-.51-.08-1-1.06-1l-.55,0c-.18,0-.33-.06-.33-.26s.3-.27.57-.28h1.22v-.69H25.19a.89.89,0,0,0-.94.94c0,.53.2,1,1.08,1l.54,0c.24,0,.29.12.29.27C26.16,15.19,25.84,15.19,25.62,15.19Z"/><path class="cls-2" d="M28.9,13.9l-.55,0c-.18,0-.33-.06-.33-.26s.3-.27.57-.28h1.22v-.69H28.15a.89.89,0,0,0-.94.94c0,.53.2,1,1.08,1l.54,0c.24,0,.29.12.29.27,0,.31-.32.31-.54.31h-1.3v.69h1.66A.94.94,0,0,0,30,15C30,14.44,29.88,14,28.9,13.9Z"/><polygon class="cls-2" points="23.95 13.34 23.95 12.65 21.36 12.65 21.36 15.86 23.95 15.86 23.95 15.19 22.15 15.19 22.15 14.55 23.89 14.55 23.89 13.94 22.15 13.94 22.15 13.34 23.95 13.34"/><path class="cls-2" d="M21,13.52a.86.86,0,0,0-.95-.87H18v3.22h.79V14.74h1c.27,0,.38.27.38.54l0,.59H21l0-.66c0-.52-.14-.76-.51-.8A.88.88,0,0,0,21,13.52Zm-1.23.56h-1v-.73h1c.33,0,.43.21.43.37S20.07,14.08,19.74,14.08Z"/><path class="cls-2" d="M9,12.65v3.21h3l.95-1.06.92,1.07h1.52V14.78h1.06c.41,0,1.16,0,1.16-1.14a.9.9,0,0,0-1-1h-2v2.91l-1.14-1.34L14.6,13v-.31h-.73l-.9,1-.88-1H9Zm6.4.7h1c.33,0,.43.21.43.37s-.11.4-.44.4h-1Zm-2.92.87-.87,1H9.77v-.64h1.74v-.61H9.77v-.6h1.92Z"/></svg>