<svg id="Camada_1" data-name="Camada 1" xmlns="http://www.w3.org/2000/svg" viewBox="0 0 33 23"><defs><style>.cls-1{fill:#fff;}.cls-2,.cls-5{fill:#313588;}.cls-2,.cls-3,.cls-4{fill-rule:evenodd;}.cls-3{fill:#fff02d;}.cls-4{fill:#cb2128;}</style></defs><rect class="cls-1" width="33" height="23" rx="1.61"/><path class="cls-2" d="M4,3.26H29L29,11c-3-1.15-12.59-3.88-25-.47Z"/><path class="cls-3" d="M4,19.74H29V13.52C24.45,12,16.46,9.77,4,13Z"/><path class="cls-4" d="M29,13.52C24.45,12,16.46,9.77,4,13v-2.4C16.39,7.15,26,9.88,29,11Z"/><path class="cls-3" d="M12,9.1a4.51,4.51,0,0,1,4.48-3.16A4.4,4.4,0,0,1,21,9.19,42.69,42.69,0,0,0,12,9.1Z"/><path class="cls-5" d="M16.41,15.75a.55.55,0,0,1-.06.29.47.47,0,0,1-.25.16,1.35,1.35,0,0,1-.41.06.9.9,0,0,1-.36-.06.24.24,0,0,1-.16-.13.9.9,0,0,1,0-.28V14.68H14.4v1.23a1.27,1.27,0,0,0,0,.32.66.66,0,0,0,.2.27,1.15,1.15,0,0,0,.4.17,1.93,1.93,0,0,0,.55.07,1.75,1.75,0,0,0,.89-.21v.17h.69v-2h-.75Z"/><path class="cls-5" d="M11.94,14H11.2L9.5,16.53l-.11.17h.87l.48-.75h1.7l.51.75h.92L12,14Zm-.89,1.46.36-.56a2,2,0,0,0,.16-.28l.21.32.34.52Z"/><path class="cls-5" d="M19.13,14.71a.62.62,0,0,0-.19.11v-.14h-.7v2H19v-1a.65.65,0,0,1,.08-.31.24.24,0,0,1,.14-.12,1,1,0,0,1,.63,0l.08,0,.31-.47-.13,0A1.36,1.36,0,0,0,19.13,14.71Z"/><path class="cls-5" d="M23.64,16.52a.44.44,0,0,1-.11-.18,2.4,2.4,0,0,1,0-.5v-.41a1.22,1.22,0,0,0,0-.32.53.53,0,0,0-.21-.26,1.27,1.27,0,0,0-.41-.15,3.17,3.17,0,0,0-.68-.06,3.23,3.23,0,0,0-.73.07,1.2,1.2,0,0,0-.52.2.82.82,0,0,0-.27.36l0,.13.74.06,0-.07a.43.43,0,0,1,.21-.21,1.34,1.34,0,0,1,.52-.07,1.33,1.33,0,0,1,.56.09.16.16,0,0,1,.09.16l-.86.09-.48,0a2.22,2.22,0,0,0-.41.11.83.83,0,0,0-.31.2.45.45,0,0,0-.14.32.52.52,0,0,0,.34.46,1.79,1.79,0,0,0,.85.16,2.51,2.51,0,0,0,1.09-.22.42.42,0,0,0,.09.14l0,0h.86Zm-1.78-.24a.94.94,0,0,1-.42-.07c-.07,0-.1-.07-.1-.1s0,0,0-.07a.4.4,0,0,1,.16-.07l.45-.06.75-.09a.29.29,0,0,1-.06.21.55.55,0,0,1-.3.18A1.64,1.64,0,0,1,21.86,16.28Z"/></svg>