<svg id="Camada_1" data-name="Camada 1" xmlns="http://www.w3.org/2000/svg" viewBox="0 0 33 23"><defs><style>.cls-1{fill:#fff;}.cls-2{fill:#2d4f9e;}</style></defs><rect class="cls-1" width="33" height="23" rx="1.61"/><path class="cls-2" d="M20,17.81A6.25,6.25,0,0,0,20,5.32H13.14a6.32,6.32,0,0,0-6.3,6.3,6.29,6.29,0,0,0,6.3,6.19Z"/><path class="cls-1" d="M7.28,11.62a5.86,5.86,0,1,1,5.86,5.75A5.87,5.87,0,0,1,7.28,11.62Z"/><path class="cls-2" d="M11.83,8.15a3.91,3.91,0,0,0-2.38,3.47A3.68,3.68,0,0,0,11.83,15ZM14.44,15a3.72,3.72,0,0,0,2.39-3.36,3.79,3.79,0,0,0-2.39-3.47Z"/></svg>