<svg id="Camada_1" data-name="Camada 1" xmlns="http://www.w3.org/2000/svg" viewBox="0 0 33 23"><defs><style>.cls-1{fill:#ff6000;}.cls-2{fill:#fff;}</style></defs><rect class="cls-1" width="33" height="23" rx="1.6"/><path class="cls-2" d="M4.43,9.59H3.26V14H4.43c1.32,0,2.49-.46,2.49-2.2S5.75,9.59,4.43,9.59Zm.17,3.69H4.12v-3H4.6A1.42,1.42,0,0,1,6,11.78,1.42,1.42,0,0,1,4.6,13.28Z"/><path class="cls-2" d="M17.1,9.51a2.14,2.14,0,0,0-2.27,2.26,2.15,2.15,0,0,0,2.27,2.28,2.13,2.13,0,0,0,2.22-2.28A2.12,2.12,0,0,0,17.1,9.51Z"/><polygon class="cls-2" points="20.91 11.9 19.95 9.59 19.03 9.59 20.71 13.98 21.02 13.98 22.7 9.59 21.81 9.59 20.91 11.9"/><path class="cls-2" d="M9.31,10.81c0-.44.33-.53.64-.49a2.56,2.56,0,0,1,1,.42V9.9a1.49,1.49,0,0,0-1-.39,1.33,1.33,0,0,0-1.51,1.34c0,1.45,1.89,1.11,1.89,1.94,0,.4-.4.52-.76.45a4.41,4.41,0,0,1-1.07-.52v.89a2.25,2.25,0,0,0,1.11.44,1.32,1.32,0,0,0,1.62-1.33C11.2,11.25,9.31,11.57,9.31,10.81Z"/><rect class="cls-2" x="7.26" y="9.59" width="0.86" height="4.39"/><polygon class="cls-2" points="23.79 12.05 25.33 12.05 25.33 11.36 23.79 11.36 23.79 10.28 25.47 10.28 25.47 9.59 22.93 9.59 22.93 13.98 25.48 13.98 25.48 13.28 23.79 13.28 23.79 12.05"/><path class="cls-2" d="M28.24,12.26c-.09-.2-.22-.44-.46-.45v0a1,1,0,0,0,.89-1c0-1.22-1.1-1.18-2-1.18h-.93V14h.86V12.15h.28c.37,0,.48.13.6.45L28,14h1Zm-1.38-.8h-.29V10.28h.29c.43,0,.91,0,.91.57S27.28,11.46,26.86,11.46Z"/><path class="cls-2" d="M14.61,13.54a1.67,1.67,0,0,1-1.08.46,1.94,1.94,0,0,1-2.24-2.14c0-1.5.78-2.37,2.24-2.31a1.94,1.94,0,0,1,1.06.37v.85a2.39,2.39,0,0,0-1.06-.41c-.89,0-1.34.54-1.34,1.44s.42,1.39,1.34,1.36a2.43,2.43,0,0,0,1.08-.46v.84Z"/><path class="cls-2" d="M29.94,9.57a.38.38,0,1,0,.38.38A.38.38,0,0,0,29.94,9.57Zm0,.68a.31.31,0,1,1,.29-.3A.29.29,0,0,1,29.94,10.25Z"/><path class="cls-2" d="M30,10c.07,0,.11,0,.11-.11s-.05-.13-.16-.13h-.16v.43h.08V10h.05l.11.19h.08Zm-.13-.06V9.79H30s.08,0,.08.06,0,.06-.09.06Z"/></svg>