<?xml version="1.0" encoding="utf-8"?>
<!-- Generator: Adobe Illustrator 24.1.2, SVG Export Plug-In . SVG Version: 6.00 Build 0)  -->
<svg version="1.1" id="Layer_1" xmlns="http://www.w3.org/2000/svg" xmlns:xlink="http://www.w3.org/1999/xlink" x="0px" y="0px"
	 viewBox="0 0 33 23" style="enable-background:new 0 0 33 23;" xml:space="preserve">
<style type="text/css">
	.st0{fill:#FFFFFF;}
	.st1{fill:#231F20;}
	.st2{fill-rule:evenodd;clip-rule:evenodd;fill:#FFCA05;}
	.st3{fill-rule:evenodd;clip-rule:evenodd;fill:#00A4DF;}
	.st4{fill-rule:evenodd;clip-rule:evenodd;fill:#EE4123;}
	.st5{fill-rule:evenodd;clip-rule:evenodd;fill:#FFFFFF;}
</style>
<path class="st0" d="M1.6,0h29.8C32.3,0,33,0.7,33,1.6v19.8c0,0.9-0.7,1.6-1.6,1.6H1.6C0.7,23,0,22.3,0,21.4V1.6C0,0.7,0.7,0,1.6,0z
	"/>
<path class="st1" d="M1.6,0h29.8C32.3,0,33,0.7,33,1.6v19.8c0,0.9-0.7,1.6-1.6,1.6H1.6C0.7,23,0,22.3,0,21.4V1.6C0,0.7,0.7,0,1.6,0z
	"/>
<path class="st2" d="M8.4,9c0.3-0.1,0.6-0.1,0.9-0.1c1.3,0,2.4,0.9,2.6,2.1l1.8-0.4C13.2,8.5,11.4,7,9.2,7c-0.5,0-1,0.1-1.4,0.2
	L8.4,9z"/>
<path class="st3" d="M6.2,14.9l1.3-1.4c-1.1-0.9-1.2-2.6-0.3-3.7c0.1-0.1,0.2-0.2,0.3-0.3L6.2,8.1c-1.9,1.6-2.1,4.4-0.5,6.3
	C5.9,14.6,6,14.7,6.2,14.9"/>
<path class="st4" d="M11.9,12.1c-0.3,1.5-1.7,2.4-3.2,2.1c-0.1,0-0.2,0-0.3-0.1l-0.6,1.8C8.2,16,8.7,16,9.2,16c2.1,0,4-1.5,4.5-3.6
	L11.9,12.1z"/>
<path class="st5" d="M18.9,13L18.9,13L18.9,13c-0.2,0.3-0.5,0.5-0.7,0.6c-0.5,0.2-1,0.2-1.5-0.1v0.1l0,0l-0.6,1
	c0.2,0.1,0.3,0.2,0.5,0.3c0.7,0.3,1.5,0.3,2.1,0c0.5-0.2,0.9-0.6,1.2-1L18.9,13z M16.9,10.6c-0.6,0.2-0.9,0.8-0.8,1.5l2.5-1.1
	C18.2,10.5,17.5,10.3,16.9,10.6L16.9,10.6z M15.2,13.6c-0.1-0.1-0.1-0.2-0.2-0.4c-0.3-0.7-0.3-1.4,0-2.1c0.2-0.7,0.8-1.3,1.5-1.6
	c0.8-0.4,1.8-0.3,2.5,0.2c0.5,0.3,0.9,0.8,1.1,1.4c0,0.1,0.1,0.2,0.1,0.3L15.2,13.6L15.2,13.6z M22,8.1v5.3l0.8,0.3l-0.5,1.1
	l-0.9-0.4c-0.2-0.1-0.3-0.2-0.5-0.4c-0.1-0.2-0.2-0.4-0.2-0.7V8.1H22z M24.1,12.1c0,0.4,0.2,0.8,0.5,1.1l-0.8,0.9
	c-0.6-0.5-0.9-1.3-0.9-2.1c0-0.8,0.3-1.6,0.9-2.1l0.8,0.9C24.3,11.2,24.1,11.7,24.1,12.1L24.1,12.1z M25.6,13.6
	c0.7,0,1.3-0.5,1.5-1.2l1.3,0.3c-0.3,1.3-1.4,2.2-2.7,2.2c-0.3,0-0.6,0-0.9-0.1l0.4-1.2C25.3,13.6,25.5,13.6,25.6,13.6L25.6,13.6z
	 M25.6,9.3c1.3,0,2.4,0.9,2.7,2.2l-1.2,0.3c-0.2-0.8-0.9-1.3-1.7-1.2c-0.1,0-0.1,0-0.2,0.1l-0.4-1.2C25,9.4,25.3,9.3,25.6,9.3
	L25.6,9.3z"/>
</svg>
