<?xml version="1.0" encoding="utf-8"?>
<!-- Generator: Adobe Illustrator 24.1.2, SVG Export Plug-In . SVG Version: 6.00 Build 0)  -->
<svg version="1.1" id="Camada_1" xmlns="http://www.w3.org/2000/svg" xmlns:xlink="http://www.w3.org/1999/xlink" x="0px" y="0px"
	 viewBox="0 0 33 23" style="enable-background:new 0 0 33 23;" xml:space="preserve">
<style type="text/css">
	.st0{fill:#F47421;}
	.st1{fill:#FFFFFF;}
	.st2{fill-rule:evenodd;clip-rule:evenodd;fill:#FBE900;}
	.st3{fill-rule:evenodd;clip-rule:evenodd;fill:#FFFFFF;}
</style>
<path class="st0" d="M1.6,0h29.8C32.3,0,33,0.7,33,1.6v19.8c0,0.9-0.7,1.6-1.6,1.6H1.6C0.7,23,0,22.3,0,21.4V1.6C0,0.7,0.7,0,1.6,0z
	"/>
<g>
	<polygon class="st1" points="6.4,8.2 6.4,14.3 7.8,14.3 7.8,11.7 10,11.7 10,14.3 11.4,14.3 11.4,8.2 10,8.2 10,10.5 7.8,10.5 
		7.8,8.2 6.4,8.2 	"/>
	<path class="st1" d="M23.2,12.5c0-0.2,0-0.4,0-0.5c0.1-1.1-0.6-2-1.7-2.2c-0.1,0-0.2,0-0.3,0c-1.2,0-2.2,1-2.2,2.2
		c0,0.1,0,0.1,0,0.2c-0.1,1.2,0.8,2.2,2,2.3c0.1,0,0.3,0,0.4,0c0.5,0,1.1-0.1,1.6-0.3l-0.2-0.9c-0.4,0.1-0.8,0.2-1.2,0.2
		c-0.6,0-1.2-0.3-1.2-0.8L23.2,12.5z M20.4,11.6c0-0.5,0.4-0.9,0.8-0.9c0.4,0,0.8,0.4,0.8,0.8c0,0,0,0.1,0,0.1H20.4z"/>
	<path class="st1" d="M23.7,14.3h1.4V12c0-0.1,0-0.2,0-0.3c0.1-0.4,0.5-0.7,0.9-0.7h0.4V9.8h-0.3c-0.5,0-1,0.4-1.2,0.9l0,0V9.8h-1.2
		c0,0.4,0,0.8,0,1.4L23.7,14.3L23.7,14.3z"/>
	<path class="st2" d="M12.8,8c0.4,0,0.7,0.3,0.7,0.7C13.4,9,13,9.2,12.6,9.1c-0.2-0.1-0.4-0.2-0.5-0.5C12.2,8.3,12.5,8,12.8,8
		L12.8,8L12.8,8z"/>
	<path class="st3" d="M15.7,13.2h0.7c0.5,0.1,0.9-0.3,1-0.8c0,0,0-0.1,0-0.1c0-0.5,0-1.5-0.9-1.5c-0.9,0-0.8,1.4-0.8,2
		C15.7,12.9,15.7,13.1,15.7,13.2L15.7,13.2z M12.1,9.9h1.4v2.5c0,0.5,0.3,0.9,0.7,0.9c0,0,0.1,0,0.1,0c0-1.1,0-2.3,0-3.4h1.2
		c0,0.2,0,0.4,0.1,0.6c0.6-0.8,1.7-1,2.4-0.4c0.2,0.1,0.3,0.3,0.4,0.5c0.8,1.1,0.5,2.5-0.6,3.3c-0.4,0.3-1,0.5-1.5,0.4h-0.6V16h-1.4
		v-1.7c-1.1,0.1-2.1-0.6-2.2-1.7c0-0.1,0-0.2,0-0.2C12.1,12.4,12.1,9.9,12.1,9.9z"/>
</g>
</svg>
