<?xml version="1.0" encoding="utf-8"?>
<!-- Generator: Adobe Illustrator 24.1.2, SVG Export Plug-In . SVG Version: 6.00 Build 0)  -->
<svg version="1.1" id="Camada_1" xmlns="http://www.w3.org/2000/svg" xmlns:xlink="http://www.w3.org/1999/xlink" x="0px" y="0px"
	 viewBox="0 0 33 23" style="enable-background:new 0 0 33 23;" xml:space="preserve">
<style type="text/css">
	.st0{fill:#BA1319;}
	.st1{fill:#FFFFFF;}
</style>
<path class="st0" d="M1.6,0h29.8C32.3,0,33,0.7,33,1.6v19.8c0,0.9-0.7,1.6-1.6,1.6H1.6C0.7,23,0,22.3,0,21.4V1.6C0,0.7,0.7,0,1.6,0z
	"/>
<path class="st1" d="M9.7,9.7C9.8,9.6,10,9.2,9.8,9C9.7,9,9.6,9,9.5,9C9.4,9,9.3,9.1,9.3,9.2c-0.1,0.1-0.1,0.4,0,0.6
	C9.4,9.8,9.6,9.8,9.7,9.7z M7.9,9c-0.1,0.6-0.2,1.2-0.3,1.7c-0.7,0-1.3,0-1.9,0C5.8,10.2,5.9,9.6,6,9H5.3c-0.3,1.4-0.5,2.9-0.8,4.3
	h0.7c0.1-0.7,0.2-1.4,0.4-2.1c0.6,0,1.3,0,1.9,0c-0.1,0.7-0.3,1.4-0.4,2.1h0.7c0.2-1.4,0.5-2.9,0.8-4.3L7.9,9z M18.1,10.2
	c-0.5-0.1-1,0.1-1.2,0.5c0-0.2,0.1-0.3,0.1-0.5h-0.6c-0.1,1.1-0.3,2.1-0.5,3.1h0.6c0-0.7,0.2-1.3,0.3-2c0.1-0.5,0.6-0.7,1.1-0.6
	c0,0,0,0,0.1,0C18,10.6,18.1,10.4,18.1,10.2L18.1,10.2z M18.4,12.6c-0.1-0.2-0.1-0.4-0.1-0.6c0-0.4,0.2-0.8,0.4-1.2
	c0.5-0.3,1-0.3,1.5-0.1c0-0.2,0-0.3,0.1-0.5c-0.7-0.2-1.5-0.1-2.1,0.4c-0.5,0.6-0.7,1.4-0.5,2.1c0.2,0.7,1.2,0.8,2.1,0.5
	c0-0.1,0-0.3,0.1-0.5C19.5,13,18.6,13.1,18.4,12.6L18.4,12.6z M25.5,10.3c-0.5-0.2-1,0-1.2,0.5c0-0.1,0-0.3,0.1-0.5h-0.6
	c-0.1,1.1-0.3,2.1-0.5,3.1H24c0-0.4,0.1-0.7,0.1-1.1c0.1-0.9,0.3-1.8,1.3-1.5C25.5,10.5,25.5,10.4,25.5,10.3L25.5,10.3z M9.1,10.3
	L9.1,10.3c-0.1,1-0.3,2-0.5,3h0.6c0.1-1,0.3-2.1,0.5-3.1L9.1,10.3z M14.6,10.2c-0.4,0-0.8,0.2-1.1,0.5c-0.4,0.5-0.6,1.2-0.5,1.9
	c0.1,1,1.4,1,2.4,0.7c0-0.2,0.1-0.3,0.1-0.5C15,13,14.4,13,13.9,12.8c-0.3-0.2-0.3-0.7-0.2-1.2c0.7,0,1.4,0,2.1,0
	c0.1-0.3,0.1-0.7,0.1-1C15.6,10.3,15.1,10.2,14.6,10.2L14.6,10.2z M15.2,11.3h-1.5c0.1-0.4,0.4-0.7,0.8-0.7
	C15,10.6,15.3,10.7,15.2,11.3z M12.2,10.3c-0.5-0.1-1,0-1.5,0.3l0,0c0-0.1,0-0.2,0-0.3h-0.5c-0.2,1.5-0.5,3-0.8,4.4h0.6
	c0.1-0.6,0.1-1.2,0.3-1.7c0.1,0.6,1.1,0.4,1.5,0.2C12.6,12.8,13.3,10.7,12.2,10.3L12.2,10.3z M11.7,12.7c-0.3,0.4-1.2,0.4-1.2-0.3
	c0-0.3,0-0.5,0.1-0.8c0.1-0.3,0.1-0.5,0.1-0.8c0.3-0.4,1.3-0.5,1.4,0.2C12.2,11.7,12.1,12.3,11.7,12.7L11.7,12.7z M27.9,8.9
	c-0.1,0.5-0.1,0.9-0.2,1.4c-1.5-0.5-2.5,0.6-2.5,2.1c0,0.3,0.1,0.5,0.2,0.7c0.4,0.3,1.1,0.4,1.5,0.1c0.1-0.1,0.2-0.1,0.2-0.2
	c0-0.1,0.1-0.2,0.1-0.1c0,0.1-0.1,0.3-0.1,0.4h0.6c0.2-1.5,0.4-2.9,0.7-4.4L27.9,8.9z M26.5,12.9c-0.4,0-0.6-0.3-0.6-0.7
	c0-0.8,0.3-1.6,1-1.7c0.3,0,0.5,0,0.8,0.1C27.4,11.6,27.5,13,26.5,12.9L26.5,12.9z M21,10.3c0,0.2-0.1,0.3-0.1,0.5
	c0.4-0.1,1.5-0.4,1.6,0.1c0,0.2,0,0.3-0.1,0.5c-1-0.1-1.9,0.1-2.1,0.8c-0.2,0.4,0,0.9,0.3,1.1c0.6,0.2,1.2,0,1.6-0.5
	c0,0.2-0.1,0.3,0,0.5h0.5c0-0.5,0.1-0.9,0.2-1.4c0.1-0.4,0.1-0.8,0.2-1.1C23.2,9.9,21.8,10.2,21,10.3L21,10.3z M22,12.7
	c-0.3,0.3-1.2,0.4-1.1-0.4s0.8-0.8,1.5-0.7C22.3,12.1,22.2,12.4,22,12.7L22,12.7z"/>
</svg>
