<svg id="Layer_1" data-name="Layer 1" xmlns="http://www.w3.org/2000/svg" xmlns:xlink="http://www.w3.org/1999/xlink" viewBox="0 0 33 23"><defs><style>.cls-1{fill:#fff;}.cls-2{fill:url(#Gradiente_sem_nome_3);}.cls-3{fill:url(#Gradiente_sem_nome_3-2);}.cls-4{fill:url(#Gradiente_sem_nome_3-3);}.cls-5{fill:url(#Gradiente_sem_nome_4);}.cls-6{fill:url(#Gradiente_sem_nome_5);}</style><linearGradient id="Gradiente_sem_nome_3" x1="-344.67" y1="228.17" x2="-344.21" y2="228.17" gradientTransform="matrix(12.53, 0, 0, -12.53, 4337.27, 2870.37)" gradientUnits="userSpaceOnUse"><stop offset="0" stop-color="#007940"/><stop offset="0.23" stop-color="#00873f"/><stop offset="0.74" stop-color="#40a737"/><stop offset="1" stop-color="#5cb531"/></linearGradient><linearGradient id="Gradiente_sem_nome_3-2" x1="-344.67" y1="228.24" x2="-344.21" y2="228.24" xlink:href="#Gradiente_sem_nome_3"/><linearGradient id="Gradiente_sem_nome_3-3" x1="-344.67" y1="228.32" x2="-344.21" y2="228.32" xlink:href="#Gradiente_sem_nome_3"/><linearGradient id="Gradiente_sem_nome_4" x1="-345.69" y1="228.24" x2="-345.22" y2="228.24" gradientTransform="matrix(12.53, 0, 0, -12.53, 4337.27, 2870.37)" gradientUnits="userSpaceOnUse"><stop offset="0" stop-color="#1f286f"/><stop offset="0.47" stop-color="#004e94"/><stop offset="0.83" stop-color="#0066b1"/><stop offset="1" stop-color="#006fbc"/></linearGradient><linearGradient id="Gradiente_sem_nome_5" x1="-345.18" y1="228.24" x2="-344.73" y2="228.24" gradientTransform="matrix(12.53, 0, 0, -12.53, 4337.27, 2870.37)" gradientUnits="userSpaceOnUse"><stop offset="0" stop-color="#6c2c2f"/><stop offset="0.17" stop-color="#882730"/><stop offset="0.57" stop-color="#be1833"/><stop offset="0.86" stop-color="#dc0436"/><stop offset="1" stop-color="#e60039"/></linearGradient></defs><rect class="cls-1" width="33" height="23" rx="1.61"/><path class="cls-1" d="M26.87,16.26a3.22,3.22,0,0,1-3.22,3.22H6.13V6.74A3.22,3.22,0,0,1,9.35,3.52H26.87Z"/><path class="cls-2" d="M21.16,13h1.33l.17,0a.6.6,0,0,0,.47-.59.62.62,0,0,0-.47-.6h-1.5Z"/><path class="cls-3" d="M22.34,4.59A2.3,2.3,0,0,0,20,6.9V9.29h3.25a.82.82,0,0,1,.23,0c.74,0,1.28.42,1.28,1.07a1.09,1.09,0,0,1-1.05,1.06v0c.75,0,1.32.47,1.32,1.12s-.64,1.15-1.47,1.15H20v4.69h3.39a2.31,2.31,0,0,0,2.3-2.31V4.59Z"/><path class="cls-4" d="M23,10.54a.54.54,0,0,0-.47-.55H21.16v1.11h1.33a.53.53,0,0,0,.47-.54Z"/><path class="cls-5" d="M9.59,4.59A2.31,2.31,0,0,0,7.29,6.9v5.69a4.47,4.47,0,0,0,2,.52A1.11,1.11,0,0,0,10.51,12V9.28h2V12c0,1-.64,1.88-2.84,1.88a9.78,9.78,0,0,1-2.37-.29v4.86h3.39A2.3,2.3,0,0,0,13,16.1V4.59Z"/><path class="cls-6" d="M16,4.59A2.31,2.31,0,0,0,13.66,6.9v3a4.55,4.55,0,0,1,3.23-.74,10.49,10.49,0,0,1,1.82.28v1A4.25,4.25,0,0,0,17,9.93c-1.25-.09-2,.52-2,1.58s.74,1.69,2,1.59a4.58,4.58,0,0,0,1.75-.51v1a9.75,9.75,0,0,1-1.82.27,4.61,4.61,0,0,1-3.23-.73v5.32H17a2.3,2.3,0,0,0,2.31-2.3V4.59Z"/></svg>