<svg id="Layer_1" data-name="Layer 1" xmlns="http://www.w3.org/2000/svg" viewBox="0 0 33 23"><defs><style>.cls-1{fill:#fff;}.cls-2{fill:#231f20;}.cls-3{fill:#ff5f00;}.cls-4{fill:#eb001b;}.cls-5{fill:#f79e1b;}</style></defs><rect class="cls-1" x="0.05" width="33" height="23" rx="1.61"/><path class="cls-2" d="M25.29,18.09v0h.06s0,0,0,0h-.05Zm0,0a.05.05,0,0,1,0,0s0,0,0,0,0,0,0,0h0l.05.05h0l0-.05h0v.05h0v-.14Zm0,.19h.05l0,0,0,0a.14.14,0,0,0,0-.09l0,0,0,0h-.09l0,0a.13.13,0,0,0,0,.13.08.08,0,0,0,0,0l0,0h0m0-.26a.15.15,0,0,1,.11,0l0,0a.11.11,0,0,1,0,.11l0,0-.05,0h-.12l-.05,0,0,0a.2.2,0,0,1,0-.11l0,0s0,0,.05,0l.06,0m-13.93-.53a.45.45,0,1,1,.45.48.44.44,0,0,1-.45-.48m1.21,0v-.74h-.33v.18a.55.55,0,0,0-.47-.22.79.79,0,0,0,0,1.57.57.57,0,0,0,.47-.22v.18h.33v-.75Zm11,0a.45.45,0,1,1,.45.48.44.44,0,0,1-.45-.48m1.21,0V16.11h-.32v.78a.57.57,0,0,0-.48-.22.79.79,0,0,0,0,1.57.6.6,0,0,0,.48-.22v.18h.32ZM16.62,17a.37.37,0,0,1,.38.36h-.78a.39.39,0,0,1,.4-.36m0-.29a.73.73,0,0,0-.74.78.74.74,0,0,0,.77.79.92.92,0,0,0,.61-.21l-.16-.24a.73.73,0,0,1-.44.15.4.4,0,0,1-.44-.36h1.11v-.13a.71.71,0,0,0-.71-.78m3.93.78a.45.45,0,1,1,.45.48.44.44,0,0,1-.45-.48m1.2,0v-.74h-.32v.18a.55.55,0,0,0-.47-.22.79.79,0,0,0,0,1.57.57.57,0,0,0,.47-.22v.18h.32v-.75Zm-3,0a.76.76,0,0,0,.8.79.8.8,0,0,0,.54-.18l-.16-.26a.7.7,0,0,1-.39.13.48.48,0,0,1,0-.95.63.63,0,0,1,.39.13l.16-.26a.8.8,0,0,0-.54-.18.76.76,0,0,0-.8.78m4.19-.78a.46.46,0,0,0-.4.22v-.18h-.32V18.2h.33v-.84c0-.24.1-.38.32-.38a.45.45,0,0,1,.2,0l.1-.31a.66.66,0,0,0-.23,0m-8.71.16a1,1,0,0,0-.61-.16c-.38,0-.62.18-.62.48s.18.39.52.44l.15,0c.18,0,.26.07.26.16s-.12.18-.34.18a.78.78,0,0,1-.5-.16L12.9,18a1,1,0,0,0,.65.2c.43,0,.68-.2.68-.49s-.2-.4-.52-.45l-.15,0c-.15,0-.26,0-.26-.14s.11-.18.29-.18a.9.9,0,0,1,.46.13l.14-.26Zm4.19-.16a.44.44,0,0,0-.39.22v-.18h-.32V18.2H18v-.84c0-.24.11-.38.32-.38a.45.45,0,0,1,.2,0l.1-.31a.62.62,0,0,0-.23,0m-2.77,0h-.53v-.46h-.33v.46h-.3V17h.3v.69c0,.34.14.55.52.55a.82.82,0,0,0,.41-.12l-.1-.28a.54.54,0,0,1-.28.09c-.17,0-.22-.1-.22-.25V17h.53ZM10.76,18.2v-.94a.56.56,0,0,0-.59-.59.6.6,0,0,0-.53.27.53.53,0,0,0-.49-.27.5.5,0,0,0-.44.22v-.18H8.39V18.2h.32v-.83A.35.35,0,0,1,9.08,17c.22,0,.32.14.32.39v.83h.33v-.83a.36.36,0,0,1,.37-.4c.22,0,.33.15.33.4v.83Z"/><path class="cls-3" d="M18.69,9.75a5.64,5.64,0,0,0-2.14-4.43h0a5.63,5.63,0,0,0,0,8.85h0A5.63,5.63,0,0,0,18.69,9.75Z"/><path class="cls-4" d="M16.55,14.17a5.63,5.63,0,0,1,0-8.85h0a5.63,5.63,0,1,0,0,8.85Z"/><path class="cls-5" d="M25.65,9.75a5.63,5.63,0,0,0-9.1-4.43h0a5.64,5.64,0,0,1,0,8.85h0a5.63,5.63,0,0,0,9.1-4.42Z"/></svg>