<?xml version="1.0" encoding="utf-8"?>
<!-- Generator: Adobe Illustrator 24.1.2, SVG Export Plug-In . SVG Version: 6.00 Build 0)  -->
<svg version="1.1" id="Layer_1" xmlns="http://www.w3.org/2000/svg" xmlns:xlink="http://www.w3.org/1999/xlink" x="0px" y="0px"
	 viewBox="0 0 33 23" style="enable-background:new 0 0 33 23;" xml:space="preserve">
<style type="text/css">
	.st0{fill:#1A1F71;}
	.st1{fill-rule:evenodd;clip-rule:evenodd;fill:#FFFFFF;}
</style>
<path class="st0" d="M1.6,0h29.8C32.3,0,33,0.7,33,1.6v19.8c0,0.9-0.7,1.6-1.6,1.6H1.6C0.7,23,0,22.3,0,21.4V1.6C0,0.7,0.7,0,1.6,0z
	"/>
<g id="形状_1">
	<g id="形状_1-2">
		<path class="st1" d="M13.4,8.1l-1.1,6.9h1.8l1.1-6.9H13.4z M10.8,8.1l-1.7,4.7l-0.2-1l0,0v-0.2c-0.4-0.8-0.9-1.5-1.6-2
			C7,9.3,6.7,9.2,6.4,9L8,14.9h1.9l2.8-6.9H10.8z M17.8,10c0-0.8,1.7-0.7,2.5-0.3l0.3-1.5C20,8.1,19.5,8,18.9,8c-0.9,0-3,0.4-3,2.3
			s2.5,1.7,2.5,2.7s-2.2,0.8-2.9,0.2l-0.3,1.5c0.6,0.3,1.3,0.4,2,0.4c1.2,0,3.1-0.6,3.1-2.4S17.8,10.8,17.8,10L17.8,10z M25,8.1
			h-1.4c-0.4,0-0.7,0.2-0.8,0.5l-2.7,6.4H22l0.4-1h2.3l0.2,1h1.6L25,8.1z M22.8,12.5l0.9-2.6l0.5,2.6H22.8z"/>
	</g>
</g>
<g id="形状_1-3">
	<g id="形状_1-4">
		<path class="st1" d="M8.3,8.7C8.2,8.3,7.8,8,7.4,8.1H4.6v0.1c1,0.3,1.9,0.7,2.7,1.3c0.8,0.6,1.3,1.4,1.7,2.3L8.3,8.7z"/>
	</g>
</g>
</svg>
